<svg id="Calque_1" data-name="Calque 1" xmlns="http://www.w3.org/2000/svg" version="1.1" viewBox="0 0 1500 1500">
  <path class="cls-1" d="M1133.2,502.9c11.6-35.3,23.8-129.5,26.8-135.3-189.7,354.6-370.7,299.8-370.7,232.3s14-118.9,55-135.5c41.1-16.7,109.2,56.9,33.9,121.8,0,0,157.7-66.4,245.3-313.6-136.1,216.5-284.1,145.1-255.9,92.4-67.7,85.5-113.7,27.8-50.4-6.8-45.3-16.8-32.2-205.2-32.2-228.4s46-32.6,54.2,6.9c8.8-48.1-33.7-101.9-84.4-87.4-50.7-14.5-93.2,39.2-84.4,87.4,8.2-39.5,54.2-30.1,54.2-6.9s13.1,211.6-32.2,228.4c63.4,34.6,17.3,92.3-50.4,6.8,28.2,52.7-119.8,124.1-255.9-92.4,87.6,247.2,245.3,313.6,245.3,313.6-75.3-65-7.1-138.5,33.9-121.8,41.1,16.7,55,81.5,55,135.5s-181,122.3-370.7-232.3c3.1,5.8,15.3,100,26.8,135.3,18.5,56.2-221.1,169.7-336.8-37.3,20.9,157.1,273.9,414.3,457.3,509.6-52.2-48.5-28.6-100.2,4-75.4,123.6,94.1,158.6,129.1,213.7,184.4,0,35.3-23.4,104-58.8,61.9,35.9,85.4,92.3,247.7,98.7,288.6,6.4-40.9,62.8-203.3,98.7-288.6-35.4,42-58.8-26.6-58.8-61.9,55.1-55.3,90.1-90.3,213.7-184.4,32.6-24.8,56.2,26.9,4,75.4,183.5-95.3,436.4-352.5,457.3-509.6-115.8,207-355.3,93.6-336.8,37.3ZM722.6,803.6c0,177.5-66.2,136.1-276.1-85.4,50.8,132.1-75.6,139.6-184.8-72.2,17.5,29.5,52.8,30.1,54.9,23.7,39.4-116.3,133.5-68.2,296.5,108.4-95.6-122.9,31.8-133.7,97.6-66.5,16.9,17.3,11.8,54.1,11.8,92ZM1063.5,718.2c-209.8,221.5-276.1,262.8-276.1,85.4s-5.1-74.7,11.8-92c65.8-67.2,193.2-56.3,97.6,66.5,162.9-176.6,257-224.7,296.5-108.4,2.2,6.4,37.4,5.8,54.9-23.7-109.2,211.8-235.6,204.4-184.8,72.2Z" fill="#494949"></path>
</svg>