<svg version="1.1" id="Layer_1" xmlns="http://www.w3.org/2000/svg" xmlns:xlink="http://www.w3.org/1999/xlink" x="0px" y="0px"
	 width="100%" viewBox="0 0 1000 1000" enable-background="new 0 0 1000 1000" xml:space="preserve">
<path fill="#fff" opacity="1.000000" stroke="none" 
	d="
M160.396866,222.413177 
	C243.259674,174.348770 325.809509,126.476624 408.344116,78.578171 
	C430.667572,65.622887 452.908234,52.524620 475.255432,39.610641 
	C491.682220,30.117956 508.401978,29.317215 525.069031,38.936626 
	C566.323120,62.746479 607.520264,86.655136 648.725647,110.549385 
	C703.473267,142.296570 758.207947,174.066025 812.946167,205.829437 
	C837.144409,219.871185 861.334778,233.926559 885.534119,247.966385 
	C902.745483,257.951965 911.146912,272.726593 911.130066,292.779541 
	C911.014221,431.110626 910.970032,569.442078 911.182190,707.772888 
	C911.215271,729.309937 902.112366,744.348511 883.605713,755.003296 
	C821.402466,790.815674 759.425781,827.021545 697.354797,863.063599 
	C640.606689,896.014709 583.817078,928.894470 527.113647,961.922180 
	C509.311707,972.291138 491.926208,972.070312 474.181885,961.668518 
	C428.355530,934.804810 382.420441,908.126221 336.475769,881.464966 
	C262.443909,838.504944 188.323868,795.696655 114.352455,752.633057 
	C100.020584,744.289551 92.105240,731.392517 91.021065,714.688171 
	C90.665512,709.210022 90.894264,703.692566 90.894089,698.193054 
	C90.889870,563.361816 90.985924,428.530396 90.790115,293.699432 
	C90.760117,273.042114 99.018677,257.845245 116.848068,247.624924 
	C131.293854,239.344177 145.670731,230.943192 160.396866,222.413177 
z"/>
</svg>