<?xml version="1.0" standalone="no"?>
<!DOCTYPE svg PUBLIC "-//W3C//DTD SVG 20010904//EN"
 "http://www.w3.org/TR/2001/REC-SVG-20010904/DTD/svg10.dtd">
<svg version="1.0" xmlns="http://www.w3.org/2000/svg"
 width="512.000000pt" height="512.000000pt" viewBox="0 0 512.000000 512.000000"
 preserveAspectRatio="xMidYMid meet">

<g transform="translate(0.000000,512.000000) scale(0.100000,-0.100000)"
fill="#000000" stroke="none">
<path d="M808 5096 c-37 -13 -87 -39 -110 -57 -67 -53 -420 -379 -454 -421
-101 -120 -120 -302 -45 -434 34 -59 17 -40 670 -753 289 -316 541 -594 558
-619 56 -78 76 -144 76 -252 0 -108 -20 -174 -76 -252 -17 -25 -269 -303 -558
-619 -652 -712 -635 -694 -670 -753 -75 -132 -56 -314 45 -434 34 -42 387
-368 454 -421 54 -42 162 -81 227 -81 94 0 198 37 264 94 13 12 268 287 566
611 298 325 555 602 571 616 74 66 160 94 263 87 82 -6 147 -35 210 -93 24
-22 281 -299 571 -615 290 -316 540 -587 556 -601 68 -61 171 -99 269 -99 68
0 176 40 233 86 85 69 406 366 444 411 78 92 109 207 89 323 -22 124 21 71
-810 979 -499 545 -511 560 -533 694 -8 49 -8 85 0 134 23 137 23 137 665 838
339 370 608 672 629 706 86 141 70 321 -40 452 -39 46 -365 348 -442 408 -93
73 -211 103 -322 80 -62 -13 -138 -50 -177 -84 -13 -12 -244 -263 -514 -557
-671 -733 -652 -714 -756 -746 -93 -28 -207 -12 -287 39 -53 34 -108 92 -671
707 -270 294 -501 544 -514 556 -66 57 -170 94 -264 94 -27 0 -80 -11 -117
-24z"/>
</g>
</svg>