<svg id="Calque_1" data-name="Calque 1" xmlns="http://www.w3.org/2000/svg" viewBox="0 0 995.75 699.37">
  <path class="cls-1" d="M784,259.51c51.61,43.2-107.84,38.74-227.07,30.18-8.65-81.44-24.19-208.76-28.08-289.7-3.61,65.78-17.29,189.71-28.28,285.17-36.91-3.27-62.05-6.06-62.05-6.06,21.41,4.21,41.8,8.33,61.32,12.36-5.16,44.75-9.66,82.63-12.1,104.33-1.53,13.57-26.3,28.52-37.92,31.39,16.9-7.85,26.4-21.44,28.93-30.38,0,0-15.25,1.14-8.62-6.68,0,0-37.43-6.05-170.8-27.19,104.6,31.9,149.72,34.88,119.18,56.7-9.18,6.56-67.56,12.73-157.52,9.39-61.03-2.27-91.72-2.79-225.42-8.13-11.81-.77-23.66-1.55-35.55-2.37-.8.16,228.1,29.1,439.2,41.13,0,0,0,0,0,0,53.67,4.37,69.35-1.65,71.6,34.21.11,1.74.33,3.25.63,4.61l16.95,200.89,17.83-206.59h0c2.04-23.87,11.38-27.58,27.92-28.11,15.79.19,31.08.2,45.74,0,351.89-4.91,552.72-65.83,164.12-205.16ZM520.18,387.72c2.7-2.72,4.1-13.36,8.67-65.21,3.49,66.76,8.24,75.64,13.6,92.94,2.78,8.96,6.6,19.02,22.79,23.85-24.52.21-50.32.19-77.28-.05,37.31-5.53,28.14-47.43,32.21-51.53ZM757.46,429.84c-.57-.05-1.2-.05-1.88.01-164.31,15.36-251.99-19.55-28.61-56.1,0,0-148.86,22.1-150.53,5.53-1.55-8.88-17.48-13.91,3.17-35.89,0,0-.07-9.27,4.39-19.79.22-.55-8.88,10.63-13.41,14.98-4.53,4.34-8.76,1.85-9.12-2.57-.68-8.24-1.61-17.91-2.7-28.67-9.64-3.35-19.93-6.75-30.18-9.87,344.45,73.01,372.87,114.94,228.87,132.36Z" fill="#494949"></path>
</svg>