<svg version="1.1" id="Layer_1" xmlns="http://www.w3.org/2000/svg" xmlns:xlink="http://www.w3.org/1999/xlink" x="0px" y="0px"
	 width="100%" viewBox="0 0 512 512" enable-background="new 0 0 512 512" xml:space="preserve">
<path fill="#88988B" opacity="1.000000" stroke="none" 
	d="
M47.001400,369.000000 
	C191.447388,369.000092 335.393860,369.064758 479.339905,368.853027 
	C488.796997,368.839142 497.370789,377.217041 497.150360,386.592468 
	C496.664917,407.240021 496.749146,427.911560 497.136627,448.563263 
	C497.270660,455.708221 488.847717,465.174500 480.802002,465.162476 
	C332.024445,464.940125 183.246368,464.944244 34.468719,465.131653 
	C25.141251,465.143402 16.681593,456.796387 16.867260,447.716858 
	C17.289539,427.066528 17.179934,406.399353 16.915947,385.743744 
	C16.803524,376.947235 24.991978,368.593658 33.508419,368.967285 
	C37.831692,369.156952 42.170166,369.000153 47.001400,369.000000 
z"/>
<path fill="#88988B" opacity="1.000000" stroke="none" 
	d="
M302.000000,145.000000 
	C212.669724,144.999908 123.839088,144.884705 35.009682,145.163666 
	C25.279137,145.194214 16.511211,136.901871 16.819517,126.745117 
	C17.431086,106.597702 17.284273,86.412857 16.872776,66.255280 
	C16.685421,57.077568 25.184694,48.887142 34.006142,48.895821 
	C182.667542,49.042103 331.329163,49.040775 479.990601,48.900814 
	C488.968933,48.892365 497.212738,57.105667 497.093018,65.750702 
	C496.804565,86.579323 496.803711,107.417358 497.093475,128.245941 
	C497.213806,136.893906 488.967224,145.133942 479.993652,145.103470 
	C420.829681,144.902435 361.664673,144.999863 302.000000,145.000000 
z"/>
<path fill="#88988B" opacity="1.000000" stroke="none" 
	d="
M431.000000,305.000000 
	C298.671173,304.999908 166.842209,304.920929 35.013802,305.161072 
	C25.277212,305.178802 16.512003,296.897552 16.819668,286.749481 
	C17.430489,266.601990 17.284904,246.417175 16.872562,226.259613 
	C16.684673,217.074493 25.186804,208.887512 34.001812,208.896164 
	C182.663254,209.041962 331.324921,209.040924 479.986389,208.900528 
	C488.970734,208.892044 497.211975,217.107727 497.092743,225.746414 
	C496.805267,246.575073 496.803040,267.413147 497.093750,288.241699 
	C497.214539,296.896332 488.973572,305.303986 479.996033,305.102203 
	C463.838104,304.739105 447.666107,304.999878 431.000000,305.000000 
z"/>
</svg>