<svg xmlns="http://www.w3.org/2000/svg" width="125" height="65" viewBox="0 0 125 65" version="1.1"><path d="M 84.845 29.536 C 84.576 33.914, 84.885 35.494, 86.250 36.728 C 87.889 38.210, 88 38.053, 88 34.269 C 88 30.271, 88.047 30.221, 92.250 29.648 C 94.588 29.329, 102.292 28.764, 109.371 28.392 C 116.451 28.020, 121.626 27.383, 120.871 26.976 C 120.117 26.570, 112.525 25.931, 104 25.557 C 95.475 25.182, 87.755 24.662, 86.845 24.401 C 85.471 24.006, 85.131 24.879, 84.845 29.536 M 85 43 C 85 43.550, 86.013 43.993, 87.250 43.985 C 89.069 43.972, 89.213 43.784, 88 43 C 86.061 41.747, 85 41.747, 85 43" stroke="none" fill="#fff" fill-rule="evenodd"/><path d="M 46.201 7.250 C 47.327 11.238, 48.637 15.526, 49.111 16.780 C 50.013 19.165, 48.874 19.990, 42.446 21.603 C 38.057 22.705, 38.894 23.756, 44.744 24.487 C 49.734 25.111, 51.027 25.764, 54.864 29.601 C 57.284 32.020, 59.429 34, 59.632 34 C 59.834 34, 60 32.251, 60 30.113 L 60 26.226 66.490 25.002 C 70.060 24.328, 72.758 23.418, 72.487 22.979 C 72.216 22.540, 68.877 21.623, 65.067 20.943 C 61.257 20.262, 57.751 19.434, 57.275 19.102 C 56.799 18.771, 53.802 14.338, 50.615 9.250 C 47.429 4.162, 44.671 -0, 44.488 -0 C 44.304 -0, 45.075 3.262, 46.201 7.250 M 28 13.755 C 28 16.027, 27.388 16.702, 24.511 17.603 C 21.231 18.629, 20.872 18.509, 18.537 15.597 L 16.053 12.500 16.276 20.888 L 16.500 29.275 8.178 31.233 C 3.601 32.309, 0.033 33.366, 0.248 33.582 C 0.464 33.797, 4.434 34.664, 9.070 35.508 C 13.707 36.352, 18.474 37.256, 19.665 37.519 C 21.125 37.840, 24.379 42.043, 29.665 50.436 C 33.974 57.278, 37.633 62.506, 37.795 62.053 C 37.957 61.601, 36.768 56, 35.152 49.607 L 32.215 37.984 34.358 37.485 C 35.536 37.211, 40.053 36.323, 44.397 35.513 C 51.320 34.222, 55.166 33.013, 52.417 32.993 C 51.913 32.990, 46.325 32.093, 40 31 C 33.675 29.907, 28.464 29.010, 28.420 29.007 C 27.794 28.955, 21.930 19.737, 22.292 19.375 C 23.682 17.985, 30.289 20.471, 32.249 23.123 C 34.956 26.785, 36 26.763, 36 23.045 C 36 20.458, 36.437 20.009, 39.511 19.432 C 44.501 18.496, 44.859 17, 40.094 17 C 37.048 17, 35.239 16.270, 32.653 14 C 28.450 10.310, 28 10.286, 28 13.755 M 78.355 20.815 L 78.965 24.631 73.744 25.969 C 69.556 27.042, 68.917 27.460, 70.512 28.083 C 71.605 28.510, 73.928 28.891, 75.673 28.930 C 77.548 28.971, 80.106 30.059, 81.923 31.589 L 85 34.178 85 29.035 C 85 24.928, 84.447 23.200, 82.250 20.447 C 78.691 15.986, 77.599 16.089, 78.355 20.815 M 66.038 36.116 L 66 40.733 54.922 42.009 C 48.828 42.711, 44.395 43.626, 45.069 44.043 C 45.744 44.460, 51.190 45.120, 57.172 45.511 L 68.048 46.222 71.644 50.611 C 73.622 53.025, 75.581 55, 75.998 55 C 76.414 55, 76.532 53.025, 76.260 50.610 L 75.765 46.220 80.818 45.525 C 87.409 44.619, 86.783 42.415, 79.675 41.503 C 75.152 40.922, 73.969 40.250, 70.288 36.169 L 66.077 31.500 66.038 36.116" stroke="none" fill="#fff" fill-rule="evenodd"/></svg>